<mxfile host="65bd71144e">
    <diagram id="_ZRYjguQpIoT6QBKUTYb" name="Page-1">
        <mxGraphModel dx="990" dy="1419" grid="1" gridSize="10" guides="1" tooltips="1" connect="1" arrows="1" fold="1" page="1" pageScale="1" pageWidth="850" pageHeight="1100" math="0" shadow="0">
            <root>
                <mxCell id="0"/>
                <mxCell id="1" parent="0"/>
                <mxCell id="2" value="OS Disk" style="rounded=0;whiteSpace=wrap;html=1;fontSize=18;" parent="1" vertex="1">
                    <mxGeometry x="10" y="140" width="350" height="60" as="geometry"/>
                </mxCell>
                <mxCell id="19" style="edgeStyle=none;html=1;exitX=0.5;exitY=0;exitDx=0;exitDy=0;fontSize=18;" parent="1" source="3" target="2" edge="1">
                    <mxGeometry relative="1" as="geometry"/>
                </mxCell>
                <mxCell id="3" value="OS Cache" style="rounded=0;whiteSpace=wrap;html=1;fontSize=18;" parent="1" vertex="1">
                    <mxGeometry x="10" y="270" width="350" height="60" as="geometry"/>
                </mxCell>
                <mxCell id="18" style="edgeStyle=none;html=1;exitX=0.5;exitY=0;exitDx=0;exitDy=0;entryX=0.5;entryY=1;entryDx=0;entryDy=0;fontSize=18;" parent="1" source="4" target="3" edge="1">
                    <mxGeometry relative="1" as="geometry"/>
                </mxCell>
                <mxCell id="4" value="" style="rounded=0;whiteSpace=wrap;html=1;dashed=1;fontSize=18;" parent="1" vertex="1">
                    <mxGeometry x="10" y="400" width="350" height="120" as="geometry"/>
                </mxCell>
                <mxCell id="5" value="Segment" style="whiteSpace=wrap;html=1;shape=mxgraph.basic.document;fontSize=18;" parent="1" vertex="1">
                    <mxGeometry x="30" y="420" width="80" height="70" as="geometry"/>
                </mxCell>
                <mxCell id="7" value="Segment" style="whiteSpace=wrap;html=1;shape=mxgraph.basic.document;fontSize=18;" parent="1" vertex="1">
                    <mxGeometry x="120" y="420" width="80" height="70" as="geometry"/>
                </mxCell>
                <mxCell id="23" style="edgeStyle=orthogonalEdgeStyle;html=1;exitX=1;exitY=0.5;exitDx=0;exitDy=0;exitPerimeter=0;fontSize=18;" parent="1" source="8" edge="1">
                    <mxGeometry relative="1" as="geometry">
                        <mxPoint x="480" y="455" as="targetPoint"/>
                    </mxGeometry>
                </mxCell>
                <mxCell id="8" value="Segment" style="whiteSpace=wrap;html=1;shape=mxgraph.basic.document;fontSize=18;" parent="1" vertex="1">
                    <mxGeometry x="260" y="420" width="80" height="70" as="geometry"/>
                </mxCell>
                <mxCell id="9" value="......" style="text;html=1;strokeColor=none;fillColor=none;align=center;verticalAlign=middle;whiteSpace=wrap;rounded=0;fontSize=18;" parent="1" vertex="1">
                    <mxGeometry x="200" y="440" width="60" height="30" as="geometry"/>
                </mxCell>
                <mxCell id="17" style="edgeStyle=orthogonalEdgeStyle;html=1;exitX=0.5;exitY=0;exitDx=0;exitDy=0;entryX=0.5;entryY=1;entryDx=0;entryDy=0;entryPerimeter=0;fontSize=18;" parent="1" source="10" target="8" edge="1">
                    <mxGeometry relative="1" as="geometry"/>
                </mxCell>
                <mxCell id="10" value="Memort Buffer" style="rounded=0;whiteSpace=wrap;html=1;fontSize=18;" parent="1" vertex="1">
                    <mxGeometry x="32" y="580" width="130" height="60" as="geometry"/>
                </mxCell>
                <mxCell id="14" style="edgeStyle=none;html=1;exitX=0.25;exitY=0;exitDx=0;exitDy=0;entryX=0.5;entryY=1;entryDx=0;entryDy=0;fontSize=18;" parent="1" source="12" target="10" edge="1">
                    <mxGeometry relative="1" as="geometry"/>
                </mxCell>
                <mxCell id="15" style="edgeStyle=none;html=1;exitX=0.75;exitY=0;exitDx=0;exitDy=0;entryX=0.5;entryY=1;entryDx=0;entryDy=0;entryPerimeter=0;fontSize=18;" parent="1" source="12" target="16" edge="1">
                    <mxGeometry relative="1" as="geometry">
                        <mxPoint x="272" y="640" as="targetPoint"/>
                    </mxGeometry>
                </mxCell>
                <mxCell id="12" value="Client" style="rounded=0;whiteSpace=wrap;html=1;fontSize=18;" parent="1" vertex="1">
                    <mxGeometry x="10" y="700" width="350" height="60" as="geometry"/>
                </mxCell>
                <mxCell id="20" style="edgeStyle=orthogonalEdgeStyle;html=1;exitX=1.02;exitY=0.269;exitDx=0;exitDy=0;exitPerimeter=0;entryX=1;entryY=0.5;entryDx=0;entryDy=0;fontSize=18;" parent="1" source="16" target="3" edge="1">
                    <mxGeometry relative="1" as="geometry">
                        <Array as="points">
                            <mxPoint x="440" y="589"/>
                            <mxPoint x="440" y="300"/>
                        </Array>
                    </mxGeometry>
                </mxCell>
                <mxCell id="21" style="edgeStyle=orthogonalEdgeStyle;html=1;exitX=1;exitY=0.5;exitDx=0;exitDy=0;exitPerimeter=0;fontSize=18;" parent="1" source="16" edge="1">
                    <mxGeometry relative="1" as="geometry">
                        <mxPoint x="480" y="605" as="targetPoint"/>
                    </mxGeometry>
                </mxCell>
                <mxCell id="16" value="Translog" style="whiteSpace=wrap;html=1;shape=mxgraph.basic.document;fontSize=18;" parent="1" vertex="1">
                    <mxGeometry x="226" y="570" width="92" height="70" as="geometry"/>
                </mxCell>
                <mxCell id="24" value="&lt;font style=&quot;font-size: 18px&quot;&gt;refresh 行为会立即把缓存中的文档写入Segment 文件中，但是此时新创建的Segment是卸载文件系统的缓存中的。如果出现断电等异常，那么这部分数据就丢失了。所以es会定期执行flush操作，将缓存中的Segment全部写入磁盘并确保写入成功，同时创建一个 commit point，整个过程就是一个完整的commit过程&lt;/font&gt;" style="text;html=1;strokeColor=none;fillColor=none;align=center;verticalAlign=middle;whiteSpace=wrap;rounded=0;fontSize=18;" parent="1" vertex="1">
                    <mxGeometry x="480" y="320" width="360" height="190" as="geometry"/>
                </mxCell>
                <mxCell id="25" value="&lt;font style=&quot;font-size: 18px&quot;&gt;每当es接收一个文档时，在把文档放在buffer的同时，都会把文档记录在translog中&lt;br style=&quot;font-size: 18px;&quot;&gt;index.translog.durability: &lt;br style=&quot;font-size: 18px;&quot;&gt;同步还是异步 默认fsync&lt;br style=&quot;font-size: 18px;&quot;&gt;index.translog.sync_interval: &lt;br style=&quot;font-size: 18px;&quot;&gt;同步间隔，默认5s&lt;br style=&quot;font-size: 18px;&quot;&gt;index.translog.flush_threshold_size: &lt;br style=&quot;font-size: 18px;&quot;&gt;同步块最大大小 512mb&lt;/font&gt;" style="text;html=1;strokeColor=none;fillColor=none;align=center;verticalAlign=middle;whiteSpace=wrap;rounded=0;fontSize=18;" parent="1" vertex="1">
                    <mxGeometry x="480" y="520" width="360" height="220" as="geometry"/>
                </mxCell>
            </root>
        </mxGraphModel>
    </diagram>
</mxfile>